# Blender v2.81 (sub 16) OBJ File: 'FuturisticVehicle.blend'
# www.blender.org
mtllib FuturisticVehicle.mtl
o Cube
v 0.513105 0.043601 10.228574
v 0.527590 -0.133437 10.258728
v -0.513106 0.043601 10.228574
v -0.527591 -0.133437 10.258728
v 0.767794 0.949981 -0.156199
v 0.953716 -0.371654 -0.518391
v -0.767794 0.949981 -0.156199
v -0.953716 -0.371654 -0.518392
v 0.000000 -0.357618 -0.518392
v 0.000000 1.085327 -0.451052
v -0.000000 0.001794 10.643478
v 0.573747 0.045740 10.228952
v -1.756665 -0.175650 -0.629784
v -0.573748 0.045740 10.228952
v 1.756665 -0.175650 -0.629784
v -0.000000 0.046732 10.641623
v 0.000000 -0.065304 -0.516973
v 1.000000 -0.252806 4.649241
v -0.724600 0.924393 4.507988
v -0.988096 -0.126393 4.529458
v 0.724599 0.924393 4.507988
v -0.000000 -0.623186 4.649241
v -0.000000 1.386252 5.461629
v 0.945922 0.437040 4.497087
v -0.945922 0.437040 4.497087
v 1.000000 -0.503633 1.824620
v -0.940302 1.435321 1.759815
v -0.000000 -0.681750 1.824620
v -1.633220 0.545903 1.975760
v -1.000000 -0.503633 1.824620
v 0.940301 1.435321 1.759815
v -0.000000 1.511776 1.759815
v 1.633219 0.545903 1.975760
v -1.000000 -0.252806 7.473862
v 0.779315 0.649829 7.462984
v 0.993225 0.372215 7.468876
v 1.000000 -0.252806 7.473862
v -0.779315 0.649829 7.462984
v -0.000000 -0.436679 7.473862
v -0.993226 0.372215 7.468876
v -4.473463 0.514493 -0.954757
v -2.241415 0.856893 -0.488989
v -2.291441 1.000000 1.066977
v 2.241415 0.856893 -0.488989
v 4.473463 0.514493 -0.954756
v -4.473463 0.615754 -0.591584
v 2.291441 1.000000 1.066977
v 4.473463 0.615754 -0.591583
v -5.702141 0.898049 -2.460762
v -2.601968 1.000000 -1.000000
v -2.601968 1.000000 1.230227
v 2.601968 1.000000 -1.000000
v 5.702141 0.898049 -2.460761
v -5.702141 0.898049 -1.646154
v 2.601968 1.000000 1.230227
v 5.702141 0.898049 -1.646154
v -0.699000 1.869472 1.615991
v -0.741267 1.529240 0.098145
v 0.000000 1.593945 -0.141149
v 0.741267 1.529240 0.098145
v 0.699000 1.869472 1.615991
v -0.000000 1.883370 1.669091
v -0.813728 1.757677 1.670222
v -1.000000 1.457952 -0.091001
v 0.000000 1.611234 -0.409065
v 1.000000 1.457952 -0.091001
v 0.813727 1.757677 1.670222
v -0.000000 1.899129 1.663223
v 1.042789 1.552694 1.759815
v -0.000000 1.598421 1.759815
v -1.042789 1.552694 1.759815
v 0.742122 1.993430 1.701661
v -0.000000 2.007907 1.749104
v -0.742122 1.993430 1.701661
v 0.842769 1.240225 1.968477
v -0.000000 1.837633 2.637009
v -0.842769 1.240225 1.968477
v 1.108994 1.603939 1.824620
v -0.000000 1.757222 1.824620
v -1.108994 1.603939 1.824620
v -4.353737 0.384598 -0.356806
v -3.907913 0.286742 -0.905572
v 3.907913 0.286742 -0.905572
v 4.353737 0.384598 -0.356806
v -5.670411 0.940679 -1.595976
v -5.670411 0.940679 -2.714212
v 5.670411 0.940679 -2.714211
v 5.670411 0.940679 -1.595975
v 0.000000 -0.681750 -1.000000
v -1.000000 -0.696468 -1.000000
v -2.308833 0.396432 0.028881
v -1.364806 1.120422 -0.538080
v 2.388297 0.396432 0.028882
v 1.000000 -0.696468 -1.000000
v 0.000000 1.519057 -0.838895
v 1.364806 1.120422 -0.538080
v -2.285803 -0.063471 0.076116
v -1.000000 1.365774 -0.520831
v 1.000000 1.365774 -0.520830
v 2.285803 -0.063471 0.076116
v -4.353737 0.283337 -1.000000
v -2.291441 1.000000 -0.520831
v 2.291441 1.000000 -0.520830
v 4.353737 0.283337 -1.000000
v 0.768583 1.365774 1.824620
v 0.829042 0.922087 4.712285
v 1.756830 0.442217 0.748505
v 1.231169 0.371536 4.712432
v -0.829043 0.922087 4.712285
v -1.231170 0.371536 4.712432
v -0.768583 1.365774 1.824620
v -1.756830 0.442217 0.748505
v 0.820539 1.364437 1.827521
v 0.871342 0.999759 4.643670
v -0.871343 0.999759 4.643670
v -0.820539 1.364437 1.827521
v 1.875590 0.443649 1.827521
v -1.875590 0.443649 1.827521
v 0.899739 1.239264 2.146154
v 0.773582 0.924379 4.502841
v -0.773582 0.924379 4.502841
v -0.899740 1.239264 2.146154
v 1.743624 0.547024 2.153415
v -1.743624 0.547024 2.153415
v 0.820539 1.405010 1.827521
v 1.875590 0.484223 1.827521
v -0.820539 1.405010 1.827521
v -1.875590 0.484223 1.827521
v 0.899739 1.279837 2.146154
v 1.743624 0.587598 2.153415
v -0.899740 1.279837 2.146154
v -1.743624 0.587598 2.153415
v -0.000000 0.157408 10.294636
v -0.486480 0.055489 10.342422
v 0.737315 0.701020 7.469935
v 0.486480 0.055489 10.342422
v -0.000000 0.685064 7.471234
v 0.452550 0.024606 10.316807
v -0.452551 0.024606 10.316807
v -0.000000 0.087772 10.633769
v -0.737316 0.701020 7.469935
v -0.734195 0.981507 4.808315
v 0.734194 0.981507 4.808315
v -0.000000 1.333176 5.544514
v 0.816170 0.697859 7.473862
v 0.570422 0.078877 10.298482
v 0.624555 0.000000 10.298482
v -0.570422 0.078877 10.298482
v -0.624556 0.000000 10.298482
v -0.000000 0.055015 10.713943
v -0.816170 0.697859 7.473862
v -0.816170 1.000000 4.649241
v 0.816170 1.000000 4.649241
v -0.000000 1.386252 5.461629
v 0.879006 0.697859 7.473862
v 0.570422 0.078877 10.298482
v 0.570487 -0.009556 10.260769
v -0.570422 0.078877 10.298482
v -0.570488 -0.009556 10.260769
v 1.054576 0.335055 7.473862
v -0.879007 0.697859 7.473862
v -0.816170 1.000000 4.649241
v -1.054577 0.335055 7.473862
v -1.298534 0.335055 4.649241
v 0.816170 1.000000 4.649241
v 1.298534 0.335055 4.649241
v -1.008165 0.685795 6.102128
v -0.978454 0.933067 4.935120
v 0.978453 0.933067 4.935120
v 1.008165 0.685795 6.102128
v -1.023919 0.615985 6.091250
v -0.993886 0.893957 4.876296
v 0.993885 0.893957 4.876296
v 1.023918 0.615985 6.091250
v 0.624555 0.000000 10.298482
v 0.570422 -0.161888 10.298482
v -0.624556 0.000000 10.298482
v -0.570422 -0.161888 10.298482
v -0.000000 -0.027546 10.714861
v -0.000000 0.055015 10.713943
vt 0.812500 0.742538
vt 0.812500 0.625000
vt 0.812500 0.625000
vt 0.812500 0.742538
vt 0.510411 0.250000
vt 0.611303 0.250000
vt 0.607175 0.250000
vt 0.512982 0.250000
vt 0.500000 0.125000
vt 0.598097 0.125594
vt 0.599234 0.213792
vt 0.506961 0.225169
vt 0.312500 0.625000
vt 0.375000 0.625000
vt 0.375000 0.750000
vt 0.312500 0.750000
vt 0.750000 0.625000
vt 0.750000 0.750000
vt 0.750000 0.750000
vt 0.750000 0.625000
vt 0.518794 0.437476
vt 0.606264 0.437342
vt 0.545359 0.498583
vt 0.579367 0.498583
vt 0.625000 0.875000
vt 0.625000 0.812500
vt 0.625000 0.812500
vt 0.625000 0.875000
vt 0.312500 0.500000
vt 0.375000 0.500000
vt 0.526212 0.040737
vt 0.599234 0.036208
vt 0.625000 0.125000
vt 0.625000 0.000000
vt 0.625000 0.000000
vt 0.625000 0.125000
vt 0.447570 0.048735
vt 0.434430 0.125000
vt 0.389187 0.503197
vt 0.485751 0.503159
vt 0.471731 0.625126
vt 0.403757 0.624996
vt 0.375000 0.437500
vt 0.500000 0.437500
vt 0.500000 0.500000
vt 0.485751 0.746841
vt 0.389187 0.746803
vt 0.447570 0.201265
vt 0.375000 0.937500
vt 0.500000 0.937500
vt 0.500000 1.000000
vt 0.375000 1.000000
vt 0.375000 0.812500
vt 0.500000 0.812500
vt 0.500000 0.875000
vt 0.375000 0.875000
vt 0.375000 0.312500
vt 0.500000 0.312500
vt 0.500000 0.375000
vt 0.375000 0.375000
vt 0.500000 0.750000
vt 0.500000 0.625000
vt 0.500000 0.625000
vt 0.500000 0.750000
vt 0.187500 0.500000
vt 0.250000 0.500000
vt 0.250000 0.625000
vt 0.187500 0.625000
vt 0.512960 0.315746
vt 0.612164 0.315775
vt 0.603434 0.371732
vt 0.521653 0.371773
vt 0.250000 0.750000
vt 0.187500 0.750000
vt 0.518770 0.812520
vt 0.606165 0.812659
vt 0.614672 0.873560
vt 0.510321 0.873560
vt 0.625000 0.750000
vt 0.625000 0.750000
vt 0.125000 0.625000
vt 0.125000 0.750000
vt 0.611303 0.000000
vt 0.510411 0.000000
vt 0.512982 0.000000
vt 0.607176 0.000000
vt 0.125000 0.500000
vt 0.375000 0.250000
vt 0.500000 0.250000
vt 0.750000 0.500000
vt 0.812500 0.500000
vt 0.812500 0.625000
vt 0.521653 0.878227
vt 0.603434 0.878269
vt 0.612164 0.934225
vt 0.512960 0.934254
vt 0.812500 0.750000
vt 0.750000 0.500000
vt 0.579367 0.751417
vt 0.545359 0.751417
vt 0.510321 0.376440
vt 0.614672 0.376440
vt 0.625000 0.000000
vt 0.500000 0.000000
vt 0.500000 0.000000
vt 0.625000 0.000000
vt 0.500000 0.250000
vt 0.625000 0.250000
vt 0.625000 0.250000
vt 0.500000 0.250000
vt 0.875000 0.750000
vt 0.875000 0.750000
vt 0.812500 0.750000
vt 0.625000 0.312500
vt 0.500000 0.312500
vt 0.625000 0.312500
vt 0.875000 0.500000
vt 0.812500 0.500000
vt 0.875000 0.500000
vt 0.500000 0.937500
vt 0.500000 1.000000
vt 0.625000 0.937500
vt 0.625000 0.937500
vt 0.500000 0.937500
vt 0.625000 0.937500
vt 0.625000 1.000000
vt 0.500000 1.000000
vt 0.625000 0.312500
vt 0.500000 0.312500
vt 0.500000 0.308050
vt 0.500000 0.254450
vt 0.500000 0.254450
vt 0.500000 0.308050
vt 0.500000 0.995550
vt 0.500000 0.941950
vt 0.500000 0.941950
vt 0.500000 0.995550
vt 0.875000 0.750000
vt 0.812500 0.750000
vt 0.812500 0.500000
vt 0.875000 0.500000
vt 0.819780 0.625034
vt 0.867425 0.624663
vt 0.866740 0.717787
vt 0.820553 0.717625
vt 0.820553 0.532375
vt 0.866741 0.532213
vt 0.812500 0.507462
vt 0.812500 0.507462
vt 0.812500 0.750000
vt 0.875000 0.750000
vt 0.625000 0.250000
vt 0.625000 0.250000
vt 0.875000 0.500000
vt 0.812500 0.500000
vt 0.875000 0.625000
vt 0.818291 0.536393
vt 0.817728 0.625021
vt 0.814554 0.625013
vt 0.814725 0.521987
vt 0.818291 0.713610
vt 0.814725 0.728014
vt 0.812500 0.625000
vt 0.375000 0.125000
vt 0.375000 0.000000
vt 0.500000 0.000000
vt 0.603434 0.878269
vt 0.612164 0.934225
vt 0.625000 0.375000
vt 0.750000 0.500000
vt 0.812500 0.500000
vt 0.500000 0.937500
vt 0.625000 0.937500
vt 0.512960 0.934254
vt 0.603434 0.371732
vt 0.612164 0.315775
vt 0.625000 0.312500
vt 0.625000 0.375000
vt 0.625000 0.875000
vt 0.500000 0.937500
vt 0.625000 0.937500
vt 0.612164 0.934225
vt 0.512960 0.934254
vt 0.812500 0.750000
vt 0.750000 0.750000
vt 0.500000 0.312500
vt 0.512960 0.315746
vt 0.612164 0.315775
vt 0.512960 0.315746
vt 0.500000 0.312500
vt 0.625000 0.312500
vt 0.525982 0.623863
vt 0.625000 0.625000
vt 0.623881 0.732644
vt 0.579210 0.723340
vt 0.579210 0.526660
vt 0.564139 0.523360
vt 0.687613 0.512459
vt 0.747754 0.510544
vt 0.747228 0.625440
vt 0.687500 0.625000
vt 0.747754 0.739456
vt 0.687597 0.738119
vt 0.625000 0.500000
vt 0.625000 0.500000
vt 0.500000 0.500000
vt 0.625000 0.437500
vt 0.625000 0.437500
vt 0.625000 0.375000
vt 0.687500 0.500000
vt 0.687500 0.750000
vt 0.614672 0.376440
vt 0.606264 0.437342
vt 0.625000 0.812500
vt 0.606165 0.812659
vt 0.614672 0.873560
vt 0.625000 0.875000
vt 0.625000 0.375000
vt 0.625000 0.437500
vn -0.0000 0.0000 1.0000
vn -0.3288 -0.7501 -0.5737
vn 0.0953 0.2686 -0.9585
vn -0.0541 -0.9948 0.0858
vn 0.6913 0.6936 0.2028
vn 0.0000 0.9943 0.1064
vn 0.0541 -0.9948 0.0858
vn -0.0953 0.2686 -0.9585
vn -0.2117 0.9556 -0.2049
vn 0.0478 -0.1441 -0.9884
vn 0.5496 -0.1406 0.8235
vn 0.9795 -0.1420 0.1429
vn -0.5496 -0.1406 0.8235
vn -0.0478 -0.1441 -0.9884
vn -0.5932 -0.7675 0.2430
vn -0.9430 -0.3315 0.0307
vn 0.8438 -0.5323 0.0689
vn 0.2641 -0.9630 0.0527
vn 0.7484 0.6403 0.1728
vn -0.3246 -0.9429 0.0750
vn -0.8001 0.5957 0.0712
vn -0.0814 -0.9961 0.0340
vn 0.3257 -0.7272 -0.6042
vn 0.0814 -0.9961 0.0340
vn 0.5932 -0.7675 0.2430
vn -0.8200 -0.5665 0.0815
vn 0.5608 0.8201 0.1139
vn -0.7484 0.6403 0.1728
vn -0.5608 0.8201 0.1139
vn -0.6913 0.6936 0.2028
vn 0.0000 0.9768 0.2141
vn -0.9795 -0.1420 0.1429
vn 0.9569 -0.2874 0.0413
vn 0.2669 -0.9632 0.0318
vn 0.8001 0.5957 0.0712
vn -0.3244 -0.9459 0.0092
vn 0.3306 -0.8081 -0.4875
vn -0.3306 -0.8081 -0.4875
vn -0.2553 0.9667 0.0150
vn 0.2556 -0.6524 0.7135
vn 0.2816 -0.8232 0.4930
vn 0.2553 0.9667 0.0150
vn -0.2816 -0.8232 0.4930
vn -0.2556 -0.6524 0.7135
vn -0.0193 0.9998 0.0000
vn 0.0193 0.9998 0.0000
vn -0.5934 -0.2680 0.7590
vn 0.3381 -0.9377 0.0806
vn -0.3381 -0.9377 0.0806
vn 0.0000 1.0000 0.0000
vn 0.5934 -0.2680 0.7590
vn -0.0830 0.9665 -0.2429
vn 0.0830 0.9665 -0.2429
vn -0.6661 -0.7445 0.0446
vn 0.2117 0.9556 -0.2049
vn 0.6661 -0.7445 0.0446
vn -0.5748 0.8030 -0.1572
vn 0.1366 0.9898 -0.0396
vn -0.1366 0.9898 -0.0396
vn 0.5748 0.8030 -0.1572
vn 0.0759 0.4801 0.8739
vn -0.0759 0.4801 0.8739
vn 0.1141 0.7890 0.6038
vn -0.1141 0.7890 0.6038
vn 0.0344 -0.5971 0.8014
vn -0.0344 -0.5971 0.8014
vn 0.5721 -0.2767 0.7721
vn -0.5721 -0.2767 0.7721
vn 0.2000 0.9540 -0.2231
vn -0.2000 0.9540 -0.2231
vn -0.0475 -0.5137 0.8567
vn 0.0475 -0.5137 0.8567
vn 0.5813 0.7242 -0.3710
vn -0.5813 0.7242 -0.3710
vn -0.8987 -0.4300 0.0865
vn 0.8987 -0.4300 0.0865
vn -0.8022 0.5971 0.0000
vn 0.8022 0.5971 0.0000
vn 0.5801 -0.7887 0.2036
vn -0.5801 -0.7887 0.2036
vn 0.3505 -0.6845 -0.6392
vn -0.3505 -0.6845 -0.6392
vn -0.0122 0.8295 -0.5583
vn -0.2795 0.2035 -0.9383
vn 0.3893 0.0862 -0.9171
vn 0.1397 -0.6777 -0.7220
vn 0.0122 0.8295 -0.5583
vn -0.1397 -0.6777 -0.7220
vn -0.3893 0.0862 -0.9171
vn 0.2795 0.2035 -0.9383
vn -0.0767 -0.4115 -0.9082
vn 0.0669 -0.4180 -0.9060
vn 0.2408 -0.0223 -0.9703
vn -0.2408 -0.0223 -0.9703
vn 0.4403 -0.3162 -0.8403
vn -0.0153 -0.0251 -0.9996
vn 0.0153 -0.0251 -0.9996
vn -0.4600 -0.2542 -0.8508
vn -0.1811 -0.9765 -0.1168
vn 0.6414 0.7544 0.1398
vn 0.5334 0.3331 -0.7775
vn -0.5334 0.3331 -0.7775
vn 0.0178 0.9916 0.1281
vn -0.6414 0.7544 0.1398
vn -0.6369 0.7643 -0.1006
vn 0.6202 -0.7279 0.2924
vn 0.9960 -0.0898 0.0027
vn -0.9960 -0.0898 0.0027
vn 0.0000 0.0000 -1.0000
vn 0.0086 0.0000 1.0000
vn -0.0178 0.9916 0.1281
vn 0.0440 -0.8928 0.4484
vn 0.3532 -0.9332 0.0663
vn -0.0440 -0.8928 0.4484
vn 0.6369 0.7643 -0.1006
vn -0.6202 -0.7279 0.2924
vn -0.3532 -0.9332 0.0663
vn 0.1811 -0.9765 -0.1168
vn 0.6452 0.7599 0.0785
vn -0.6452 0.7599 0.0785
vn 0.9705 0.0000 0.2412
vn 0.9269 0.0000 0.3753
vn -0.0086 0.0000 1.0000
vn -0.9269 0.0000 0.3753
vn -0.9705 0.0000 0.2412
vn -0.2523 0.9132 0.3201
vn 0.2523 0.9132 0.3201
vn 0.3073 0.9327 0.1886
vn -0.3073 0.9327 0.1886
vn -0.0609 0.9771 0.2039
vn 0.0609 0.9771 0.2039
vn -0.0694 0.9751 0.2104
vn 0.2317 -0.1804 0.9559
vn -0.2317 -0.1804 0.9559
vn 0.2429 0.9483 0.2041
vn -0.2429 0.9483 0.2041
vn -0.0071 0.9944 0.1056
vn 0.6923 0.5937 0.4102
vn -0.6923 0.5937 0.4102
vn 0.0071 0.9944 0.1056
vn 0.0694 0.9751 0.2104
vn 0.5168 -0.8458 -0.1322
vn 0.5222 0.7793 -0.3464
vn -0.5222 0.7793 -0.3464
vn 0.5063 0.8440 0.1770
vn -0.4908 -0.8627 -0.1221
vn -0.5110 0.8584 0.0440
vn 0.7108 0.5173 0.4766
vn -0.7108 0.5173 0.4766
vn -0.7983 -0.5905 0.1186
vn 0.5110 0.8584 0.0440
vn -0.5168 -0.8458 -0.1322
vn -0.5063 0.8440 0.1770
vn -0.9661 0.2560 0.0322
vn 0.9661 0.2560 0.0322
vn -0.5823 0.8071 0.0976
vn 0.4908 -0.8627 -0.1221
vn 0.7983 -0.5905 0.1186
vn 0.8134 0.1768 -0.5541
vn -0.8134 0.1768 -0.5541
vn 0.5823 0.8071 0.0976
vn -0.5891 0.1944 0.7843
vn 0.5891 0.1944 0.7843
vn 0.4201 0.8613 0.2860
vn -0.4201 0.8613 0.2860
vn 0.0111 -0.9879 0.1547
vn -0.0111 -0.9879 0.1547
usemtl Material
s off
f 27/1/1 32/2/1 70/3/1 71/4/1
f 93/5/2 96/6/2 44/7/2 83/8/2
f 17/9/3 10/10/3 5/11/3 15/12/3
f 39/13/4 179/14/4 178/15/4 34/16/4
f 23/17/1 162/18/1 152/19/1 154/20/1
f 36/21/5 35/22/5 1/23/5 12/24/5
f 162/25/6 161/26/6 151/27/6 152/28/6
f 37/29/7 176/30/7 179/14/7 39/13/7
f 13/31/8 7/32/8 10/10/8 17/9/8
f 95/33/9 98/34/9 64/35/9 65/36/9
f 8/37/10 13/31/10 17/9/10 9/38/10
f 2/39/11 157/40/11 16/41/11 11/42/11
f 37/43/12 160/44/12 175/45/12 176/30/12
f 11/42/13 16/41/13 159/46/13 4/47/13
f 9/38/14 17/9/14 15/12/14 6/48/14
f 30/49/15 112/50/15 97/51/15 90/52/15
f 34/53/16 163/54/16 164/55/16 20/56/16
f 26/57/17 107/58/17 166/59/17 18/60/17
f 177/61/1 180/62/1 150/63/1 149/64/1
f 26/65/18 18/66/18 22/67/18 28/68/18
f 33/69/19 75/70/19 21/71/19 24/72/19
f 28/68/20 22/67/20 20/73/20 30/74/20
f 40/75/21 38/76/21 109/77/21 110/78/21
f 158/79/1 177/61/1 149/64/1 148/80/1
f 89/81/22 28/68/22 30/74/22 90/82/22
f 92/83/23 91/84/23 82/85/23 42/86/23
f 94/87/24 26/65/24 28/68/24 89/81/24
f 94/88/25 100/89/25 107/58/25 26/57/25
f 20/56/26 164/55/26 112/50/26 30/49/26
f 165/90/27 105/91/27 76/92/27 23/17/27
f 25/93/28 19/94/28 77/95/28 29/96/28
f 23/17/29 76/92/29 111/97/29 162/18/29
f 165/90/1 23/17/1 154/20/1 153/98/1
f 14/99/30 3/100/30 38/76/30 40/75/30
f 161/26/31 158/79/31 148/80/31 151/27/31
f 178/15/32 177/61/32 163/54/32 34/53/32
f 18/60/33 166/59/33 160/44/33 37/43/33
f 18/66/34 37/29/34 39/13/34 22/67/34
f 108/101/35 106/102/35 35/22/35 36/21/35
f 22/67/36 39/13/36 34/16/36 20/73/36
f 102/103/37 101/104/37 86/105/37 50/106/37
f 104/107/38 103/108/38 52/109/38 87/110/38
f 111/97/39 98/111/39 102/112/39 43/113/39
f 105/114/40 107/58/40 84/115/40 47/116/40
f 107/58/41 100/89/41 104/107/41 84/115/41
f 99/117/42 105/91/42 47/118/42 103/119/42
f 97/51/43 112/50/43 81/120/43 101/121/43
f 112/50/44 111/122/44 43/123/44 81/120/44
f 85/124/45 51/125/45 50/126/45 86/127/45
f 87/110/46 52/109/46 55/128/46 88/129/46
f 81/120/47 43/123/47 51/125/47 85/124/47
f 48/130/48 45/131/48 53/132/48 56/133/48
f 41/134/49 46/135/49 54/136/49 49/137/49
f 43/113/50 102/112/50 50/138/50 51/139/50
f 47/116/51 84/115/51 88/129/51 55/128/51
f 103/119/50 47/118/50 55/140/50 52/141/50
f 73/142/52 59/143/52 58/144/52 74/145/52
f 72/146/53 60/147/53 59/143/53 73/142/53
f 32/2/1 31/148/1 69/149/1 70/3/1
f 98/111/54 111/97/54 80/150/54 64/151/54
f 99/152/55 95/33/55 65/36/55 66/153/55
f 105/91/56 99/117/56 66/154/56 78/155/56
f 74/145/57 58/144/57 64/151/57 80/150/57
f 59/143/58 60/147/58 66/154/58 65/156/58
f 58/144/59 59/143/59 65/156/59 64/151/59
f 60/147/60 72/146/60 78/155/60 66/154/60
f 61/157/61 68/158/61 62/159/61 67/160/61
f 68/158/62 57/161/62 63/162/62 62/159/62
f 67/160/63 62/159/63 79/163/63 78/155/63
f 62/159/64 63/162/64 80/150/64 79/163/64
f 68/158/65 61/157/65 72/146/65 73/142/65
f 57/161/66 68/158/66 73/142/66 74/145/66
f 63/162/67 57/161/67 74/145/67 80/150/67
f 61/157/68 67/160/68 78/155/68 72/146/68
f 31/148/69 32/2/69 76/92/69 105/91/69
f 32/2/70 27/1/70 111/97/70 76/92/70
f 70/3/71 69/149/71 78/155/71 79/163/71
f 71/4/72 70/3/72 79/163/72 80/150/72
f 27/1/73 71/4/73 80/150/73 111/97/73
f 69/149/74 31/148/74 105/91/74 78/155/74
f 46/135/75 41/134/75 101/121/75 81/120/75
f 45/131/76 48/130/76 84/115/76 104/107/76
f 49/137/77 54/136/77 85/124/77 86/127/77
f 56/133/78 53/132/78 87/110/78 88/129/78
f 53/132/79 45/131/79 104/107/79 87/110/79
f 41/134/80 49/137/80 86/127/80 101/121/80
f 54/136/81 46/135/81 81/120/81 85/124/81
f 48/130/82 56/133/82 88/129/82 84/115/82
f 8/37/83 9/38/83 89/164/83 90/165/83
f 7/32/84 13/31/84 97/166/84 98/34/84
f 6/48/85 15/12/85 100/89/85 94/88/85
f 5/11/86 10/10/86 95/33/86 99/152/86
f 9/38/87 6/48/87 94/88/87 89/164/87
f 10/10/88 7/32/88 98/34/88 95/33/88
f 13/31/89 8/37/89 90/165/89 97/166/89
f 15/12/90 5/11/90 99/152/90 100/89/90
f 91/84/91 92/83/91 98/34/91 97/166/91
f 96/6/92 93/5/92 100/89/92 99/152/92
f 42/86/93 82/85/93 101/104/93 102/103/93
f 83/8/94 44/7/94 103/108/94 104/107/94
f 82/85/95 91/84/95 97/166/95 101/104/95
f 92/83/96 42/86/96 102/103/96 98/34/96
f 44/7/97 96/6/97 99/152/97 103/108/97
f 93/5/98 83/8/98 104/107/98 100/89/98
f 77/95/99 19/94/99 121/167/99 122/168/99
f 33/69/100 24/72/100 166/59/100 107/58/100
f 24/72/101 21/71/101 165/169/101 166/59/101
f 19/94/102 25/93/102 164/55/102 162/25/102
f 105/91/103 165/90/103 114/170/103 113/171/103
f 25/93/104 29/96/104 112/50/104 164/55/104
f 111/122/105 112/50/105 118/172/105 116/173/105
f 29/96/106 77/95/106 122/168/106 124/174/106
f 120/175/107 119/176/107 113/177/107 114/178/107
f 122/168/108 121/167/108 115/179/108 116/173/108
f 116/173/109 118/172/109 128/180/109 127/181/109
f 124/174/110 122/168/110 131/182/110 132/183/110
f 162/18/111 111/97/111 116/184/111 115/185/111
f 165/169/112 21/71/112 120/175/112 114/178/112
f 112/50/113 29/96/113 124/174/113 118/172/113
f 19/94/114 162/25/114 115/179/114 121/167/114
f 107/58/115 105/114/115 113/177/115 117/186/115
f 75/70/116 33/69/116 123/187/116 119/176/116
f 33/69/117 107/58/117 117/186/117 123/187/117
f 21/71/118 75/70/118 119/176/118 120/175/118
f 129/188/119 130/189/119 126/190/119 125/191/119
f 132/183/120 131/182/120 127/181/120 128/180/120
f 122/168/121 116/173/121 127/181/121 131/182/121
f 123/187/122 117/186/122 126/190/122 130/189/122
f 119/176/123 123/187/123 130/189/123 129/188/123
f 118/172/124 124/174/124 132/183/124 128/180/124
f 117/186/109 113/177/109 125/191/109 126/190/109
f 113/177/125 119/176/125 129/188/125 125/191/125
f 140/192/126 133/193/126 134/194/126 139/195/126
f 138/196/127 136/197/127 133/193/127 140/192/127
f 135/198/128 143/199/128 144/200/128 137/201/128
f 137/201/129 144/200/129 142/202/129 141/203/129
f 133/193/130 137/201/130 141/203/130 134/194/130
f 136/197/131 135/198/131 137/201/131 133/193/131
f 175/45/1 156/204/1 146/205/1 147/206/1
f 156/204/31 155/207/31 145/208/31 146/205/31
f 180/62/1 175/45/1 147/206/1 150/63/1
f 155/207/6 165/169/6 153/209/6 145/208/6
f 135/198/132 136/197/132 146/205/132 145/210/132
f 136/197/133 138/196/133 147/206/133 146/205/133
f 139/195/134 134/194/134 148/80/134 149/64/134
f 138/196/135 140/192/135 150/63/135 147/206/135
f 140/192/136 139/195/136 149/64/136 150/63/136
f 141/203/137 142/202/137 152/19/137 151/211/137
f 144/200/138 143/199/138 153/98/138 154/20/138
f 142/202/139 144/200/139 154/20/139 152/19/139
f 143/199/140 135/198/140 145/210/140 153/98/140
f 134/194/141 141/203/141 151/211/141 148/80/141
f 1/23/142 35/22/142 155/207/142 156/204/142
f 12/24/143 1/23/143 156/204/143 175/45/143
f 3/100/144 14/99/144 177/61/144 158/79/144
f 36/21/145 12/24/145 175/45/145 160/44/145
f 35/22/146 106/102/146 173/212/146 174/213/146
f 40/75/147 110/78/147 164/55/147 163/54/147
f 106/102/148 108/101/148 166/59/148 165/169/148
f 110/78/149 109/77/149 162/25/149 164/55/149
f 38/76/150 161/26/150 167/214/150 171/215/150
f 108/101/151 36/21/151 160/44/151 166/59/151
f 38/76/152 3/100/152 158/79/152 161/26/152
f 14/99/153 40/75/153 163/54/153 177/61/153
f 172/216/154 171/215/154 167/214/154 168/217/154
f 174/213/155 173/212/155 169/218/155 170/219/155
f 161/26/156 162/25/156 168/217/156 167/214/156
f 109/77/157 38/76/157 171/215/157 172/216/157
f 155/207/158 35/22/158 174/213/158 170/219/158
f 106/102/159 165/169/159 169/218/159 173/212/159
f 162/25/160 109/77/160 172/216/160 168/217/160
f 165/169/161 155/207/161 170/219/161 169/218/161
f 157/40/162 2/39/162 176/30/162 175/45/162
f 4/47/163 159/46/163 177/61/163 178/15/163
f 2/39/164 11/42/164 179/14/164 176/30/164
f 11/42/165 4/47/165 178/15/165 179/14/165
f 16/41/166 157/40/166 175/45/166 180/62/166
f 159/46/167 16/41/167 180/62/167 177/61/167
